name rise37.2698peak67.6939fall79.5734.mot
datacolumns 19
datarows 36
range 5.93832100000000 5.99664100000000
endheader
time	ground_force1_vx	ground_force1_vy	ground_force1_vz	ground_force1_px	ground_force1_py	ground_force1_pz	ground_force2_vx	ground_force2_vy	ground_force2_vz	ground_force2_px	ground_force2_py	ground_force2_pz	ground_torque1_x	ground_torque1_y	ground_torque1_z	ground_torque2_x	ground_torque2_y	ground_torque2_z	
5.93832100000000	54.89483100000000	756.31535099999996	51.64719100000000	0.29950400000000	0.00000000000000	0.11390200000000	0.00000000000000	0.00000000000000	0.00000000000000	0.00000000000000	0.00000000000000	0.00000000000000	0.00000000000000	17.85420000000000	0.00000000000000	0.00000000000000	0.00000000000000	0.00000000000000	
5.93998300000000	54.18482700000000	758.61539800000003	51.81271900000000	0.29844600000000	0.00000000000000	0.11393800000000	0.00000000000000	0.00000000000000	0.00000000000000	0.00000000000000	0.00000000000000	0.00000000000000	0.00000000000000	17.97917400000000	0.00000000000000	0.00000000000000	0.00000000000000	0.00000000000000	
5.94164500000000	53.48607200000000	760.78933199999994	51.97055700000000	0.29740400000000	0.00000000000000	0.11397500000000	0.00000000000000	0.00000000000000	0.00000000000000	0.00000000000000	0.00000000000000	0.00000000000000	0.00000000000000	18.09835100000000	0.00000000000000	0.00000000000000	0.00000000000000	0.00000000000000	
5.94331200000000	52.79896500000000	762.83701499999995	52.12037800000000	0.29637700000000	0.00000000000000	0.11401400000000	0.00000000000000	0.00000000000000	0.00000000000000	0.00000000000000	0.00000000000000	0.00000000000000	0.00000000000000	18.21150200000000	0.00000000000000	0.00000000000000	0.00000000000000	0.00000000000000	
5.94499900000000	52.12383100000000	764.75845500000003	52.26184500000000	0.29536400000000	0.00000000000000	0.11405300000000	0.00000000000000	0.00000000000000	0.00000000000000	0.00000000000000	0.00000000000000	0.00000000000000	0.00000000000000	18.31840100000000	0.00000000000000	0.00000000000000	0.00000000000000	0.00000000000000	
5.94664200000000	51.46092400000000	766.55381399999999	52.39461000000000	0.29436300000000	0.00000000000000	0.11409300000000	0.00000000000000	0.00000000000000	0.00000000000000	0.00000000000000	0.00000000000000	0.00000000000000	0.00000000000000	18.41882100000000	0.00000000000000	0.00000000000000	0.00000000000000	0.00000000000000	
5.94831300000000	50.81042900000000	768.22341600000004	52.51832200000000	0.29337400000000	0.00000000000000	0.11413400000000	0.00000000000000	0.00000000000000	0.00000000000000	0.00000000000000	0.00000000000000	0.00000000000000	0.00000000000000	18.51254300000000	0.00000000000000	0.00000000000000	0.00000000000000	0.00000000000000	
5.94997700000000	50.17246500000000	769.76774899999998	52.63262700000000	0.29239600000000	0.00000000000000	0.11417700000000	0.00000000000000	0.00000000000000	0.00000000000000	0.00000000000000	0.00000000000000	0.00000000000000	0.00000000000000	18.59935300000000	0.00000000000000	0.00000000000000	0.00000000000000	0.00000000000000	
5.95164900000000	49.54709300000000	771.18747099999996	52.73717900000000	0.29142800000000	0.00000000000000	0.11422000000000	0.00000000000000	0.00000000000000	0.00000000000000	0.00000000000000	0.00000000000000	0.00000000000000	0.00000000000000	18.67904800000000	0.00000000000000	0.00000000000000	0.00000000000000	0.00000000000000	
5.95330900000000	48.93431500000000	772.48341300000004	52.83163700000000	0.29046700000000	0.00000000000000	0.11426400000000	0.00000000000000	0.00000000000000	0.00000000000000	0.00000000000000	0.00000000000000	0.00000000000000	0.00000000000000	18.75143400000000	0.00000000000000	0.00000000000000	0.00000000000000	0.00000000000000	
5.95497900000000	48.33407900000000	773.65658099999996	52.91567500000000	0.28951400000000	0.00000000000000	0.11431000000000	0.00000000000000	0.00000000000000	0.00000000000000	0.00000000000000	0.00000000000000	0.00000000000000	0.00000000000000	18.81633100000000	0.00000000000000	0.00000000000000	0.00000000000000	0.00000000000000	
5.95664500000000	47.74628700000000	774.70816200000002	52.98897900000000	0.28856800000000	0.00000000000000	0.11435600000000	0.00000000000000	0.00000000000000	0.00000000000000	0.00000000000000	0.00000000000000	0.00000000000000	0.00000000000000	18.87357600000000	0.00000000000000	0.00000000000000	0.00000000000000	0.00000000000000	
5.95831700000000	47.17079300000000	775.63951899999995	53.05126000000000	0.28762600000000	0.00000000000000	0.11440400000000	0.00000000000000	0.00000000000000	0.00000000000000	0.00000000000000	0.00000000000000	0.00000000000000	0.00000000000000	18.92301900000000	0.00000000000000	0.00000000000000	0.00000000000000	0.00000000000000	
5.95997700000000	46.60741200000000	776.45219699999996	53.10225000000000	0.28668700000000	0.00000000000000	0.11445300000000	0.00000000000000	0.00000000000000	0.00000000000000	0.00000000000000	0.00000000000000	0.00000000000000	0.00000000000000	18.96453200000000	0.00000000000000	0.00000000000000	0.00000000000000	0.00000000000000	
5.96164200000000	46.05592300000000	777.14792100000000	53.14170700000000	0.28575100000000	0.00000000000000	0.11450300000000	0.00000000000000	0.00000000000000	0.00000000000000	0.00000000000000	0.00000000000000	0.00000000000000	0.00000000000000	18.99800500000000	0.00000000000000	0.00000000000000	0.00000000000000	0.00000000000000	
5.96331000000000	45.51607000000000	777.72859400000004	53.16942300000000	0.28481700000000	0.00000000000000	0.11455400000000	0.00000000000000	0.00000000000000	0.00000000000000	0.00000000000000	0.00000000000000	0.00000000000000	0.00000000000000	19.02335100000000	0.00000000000000	0.00000000000000	0.00000000000000	0.00000000000000	
5.96497500000000	44.98757300000000	778.19629399999997	53.18521800000000	0.28388300000000	0.00000000000000	0.11460600000000	0.00000000000000	0.00000000000000	0.00000000000000	0.00000000000000	0.00000000000000	0.00000000000000	0.00000000000000	19.04050600000000	0.00000000000000	0.00000000000000	0.00000000000000	0.00000000000000	
5.96664400000000	44.47012300000000	778.55327599999998	53.18895300000000	0.28294900000000	0.00000000000000	0.11465900000000	0.00000000000000	0.00000000000000	0.00000000000000	0.00000000000000	0.00000000000000	0.00000000000000	0.00000000000000	19.04942900000000	0.00000000000000	0.00000000000000	0.00000000000000	0.00000000000000	
5.96831100000000	43.96339200000000	778.80196300000000	53.18052300000000	0.28201200000000	0.00000000000000	0.11471400000000	0.00000000000000	0.00000000000000	0.00000000000000	0.00000000000000	0.00000000000000	0.00000000000000	0.00000000000000	19.05010400000000	0.00000000000000	0.00000000000000	0.00000000000000	0.00000000000000	
5.96998200000000	43.46703700000000	778.94494299999997	53.15986500000000	0.28107300000000	0.00000000000000	0.11477000000000	0.00000000000000	0.00000000000000	0.00000000000000	0.00000000000000	0.00000000000000	0.00000000000000	0.00000000000000	19.04254400000000	0.00000000000000	0.00000000000000	0.00000000000000	0.00000000000000	
5.97165000000000	42.98070000000000	778.98496699999998	53.12695700000000	0.28013000000000	0.00000000000000	0.11482700000000	0.00000000000000	0.00000000000000	0.00000000000000	0.00000000000000	0.00000000000000	0.00000000000000	0.00000000000000	19.02678500000000	0.00000000000000	0.00000000000000	0.00000000000000	0.00000000000000	
5.97331400000000	42.50401400000000	778.92493899999999	53.08182200000000	0.27918300000000	0.00000000000000	0.11488500000000	0.00000000000000	0.00000000000000	0.00000000000000	0.00000000000000	0.00000000000000	0.00000000000000	0.00000000000000	19.00289300000000	0.00000000000000	0.00000000000000	0.00000000000000	0.00000000000000	
5.97498200000000	42.03660400000000	778.76791300000002	53.02452300000000	0.27823100000000	0.00000000000000	0.11494500000000	0.00000000000000	0.00000000000000	0.00000000000000	0.00000000000000	0.00000000000000	0.00000000000000	0.00000000000000	18.97095900000000	0.00000000000000	0.00000000000000	0.00000000000000	0.00000000000000	
5.97664400000000	41.57809500000000	778.51708299999996	52.95517300000000	0.27727200000000	0.00000000000000	0.11500500000000	0.00000000000000	0.00000000000000	0.00000000000000	0.00000000000000	0.00000000000000	0.00000000000000	0.00000000000000	18.93110500000000	0.00000000000000	0.00000000000000	0.00000000000000	0.00000000000000	
5.97831600000000	41.12810900000000	778.17577600000004	52.87392600000000	0.27630700000000	0.00000000000000	0.11506700000000	0.00000000000000	0.00000000000000	0.00000000000000	0.00000000000000	0.00000000000000	0.00000000000000	0.00000000000000	18.88347600000000	0.00000000000000	0.00000000000000	0.00000000000000	0.00000000000000	
5.97997700000000	40.68627200000000	777.74744399999997	52.78098200000000	0.27533500000000	0.00000000000000	0.11513000000000	0.00000000000000	0.00000000000000	0.00000000000000	0.00000000000000	0.00000000000000	0.00000000000000	0.00000000000000	18.82824800000000	0.00000000000000	0.00000000000000	0.00000000000000	0.00000000000000	
5.98164800000000	40.25221400000000	777.23565499999995	52.67658800000000	0.27435500000000	0.00000000000000	0.11519400000000	0.00000000000000	0.00000000000000	0.00000000000000	0.00000000000000	0.00000000000000	0.00000000000000	0.00000000000000	18.76562100000000	0.00000000000000	0.00000000000000	0.00000000000000	0.00000000000000	
5.98331000000000	39.82557400000000	776.64408500000002	52.56103200000000	0.27336800000000	0.00000000000000	0.11525900000000	0.00000000000000	0.00000000000000	0.00000000000000	0.00000000000000	0.00000000000000	0.00000000000000	0.00000000000000	18.69582200000000	0.00000000000000	0.00000000000000	0.00000000000000	0.00000000000000	
5.98498000000000	39.40599800000000	775.97650199999998	52.43464800000000	0.27237100000000	0.00000000000000	0.11532500000000	0.00000000000000	0.00000000000000	0.00000000000000	0.00000000000000	0.00000000000000	0.00000000000000	0.00000000000000	18.61910100000000	0.00000000000000	0.00000000000000	0.00000000000000	0.00000000000000	
5.98664300000000	38.99314700000000	775.23676599999999	52.29781000000000	0.27136700000000	0.00000000000000	0.11539300000000	0.00000000000000	0.00000000000000	0.00000000000000	0.00000000000000	0.00000000000000	0.00000000000000	0.00000000000000	18.53573500000000	0.00000000000000	0.00000000000000	0.00000000000000	0.00000000000000	
5.98831200000000	38.58669200000000	774.42880700000001	52.15093100000000	0.27035400000000	0.00000000000000	0.11546100000000	0.00000000000000	0.00000000000000	0.00000000000000	0.00000000000000	0.00000000000000	0.00000000000000	0.00000000000000	18.44602100000000	0.00000000000000	0.00000000000000	0.00000000000000	0.00000000000000	
5.98998300000000	38.18632000000000	773.55662400000006	51.99446600000000	0.26933200000000	0.00000000000000	0.11553000000000	0.00000000000000	0.00000000000000	0.00000000000000	0.00000000000000	0.00000000000000	0.00000000000000	0.00000000000000	18.35027800000000	0.00000000000000	0.00000000000000	0.00000000000000	0.00000000000000	
5.99164800000000	37.79173300000000	772.62426600000003	51.82890300000000	0.26830200000000	0.00000000000000	0.11560000000000	0.00000000000000	0.00000000000000	0.00000000000000	0.00000000000000	0.00000000000000	0.00000000000000	0.00000000000000	18.24884200000000	0.00000000000000	0.00000000000000	0.00000000000000	0.00000000000000	
5.99331200000000	37.40265000000000	771.63582699999995	51.65476400000000	0.26726300000000	0.00000000000000	0.11567100000000	0.00000000000000	0.00000000000000	0.00000000000000	0.00000000000000	0.00000000000000	0.00000000000000	0.00000000000000	18.14207100000000	0.00000000000000	0.00000000000000	0.00000000000000	0.00000000000000	
5.99498100000000	37.01880600000000	770.59542999999996	51.47260400000000	0.26621600000000	0.00000000000000	0.11574300000000	0.00000000000000	0.00000000000000	0.00000000000000	0.00000000000000	0.00000000000000	0.00000000000000	0.00000000000000	18.03033600000000	0.00000000000000	0.00000000000000	0.00000000000000	0.00000000000000	
5.99664100000000	36.63995700000000	769.50721799999997	51.28300500000000	0.26516200000000	0.00000000000000	0.11581600000000	0.00000000000000	0.00000000000000	0.00000000000000	0.00000000000000	0.00000000000000	0.00000000000000	0.00000000000000	17.91402200000000	0.00000000000000	0.00000000000000	0.00000000000000	0.00000000000000	
